<?xml version="1.0" encoding="UTF-8"?>
<svg id="Capa_1" data-name="Capa 1" xmlns="http://www.w3.org/2000/svg" xmlns:xlink="http://www.w3.org/1999/xlink" viewBox="0 0 1400 272">
  <defs>
    <style>
      .cls-1 {
        fill: url(#Degradado_sin_nombre_426);
      }

      .cls-2 {
        fill: #fafaff;
      }
    </style>
    <linearGradient id="Degradado_sin_nombre_426" data-name="Degradado sin nombre 426" x1="768.85" y1="46.69" x2="1351.82" y2="224.92" gradientUnits="userSpaceOnUse">
      <stop offset="0" stop-color="#fbe396"/>
      <stop offset=".14" stop-color="#f2690c"/>
      <stop offset=".48" stop-color="#cc3253"/>
      <stop offset=".84" stop-color="#561739"/>
      <stop offset="1" stop-color="#a0246b"/>
    </linearGradient>
  </defs>
  <path class="cls-2" d="M643.39,249.96c-1.83,0-3.56-.81-4.73-2.21-1.18-1.39-1.67-3.24-1.35-5.04l33.56-190.6c3.07-17.41,18.12-30.05,35.8-30.05l45.18-.02c1.83,0,3.56.81,4.73,2.2,1.18,1.4,1.67,3.24,1.35,5.04l-33.56,190.62c-3.07,17.41-18.13,30.05-35.81,30.05h-45.17Z"/>
  <path class="cls-2" d="M429.9,249.96c-1.83,0-3.56-.81-4.73-2.21-1.18-1.4-1.67-3.24-1.35-5.04l33.53-190.41c3.07-17.41,18.12-30.05,35.81-30.05h76.25c43.84,0,69.22,6.96,82.31,22.55,9.11,10.85,11.82,25.88,8.29,45.94-4.2,23.87-16.85,42.12-35.49,51.92,15.33,8.42,22.93,21.18,16.48,57.73l-7.82,44.42c-.52,2.95-3.08,5.1-6.08,5.1l-67.39.02c-1.82,0-3.56-.81-4.73-2.21-1.18-1.39-1.67-3.24-1.35-5.04l6.68-37.91c2.48-14.14,2.32-21.32-.58-24.77-3.03-3.6-10.83-5.29-24.56-5.29h-16.33l-12.35,70.15c-.52,2.95-3.08,5.1-6.08,5.1h-70.52ZM548.83,115.16c23.84,0,28.37-7.3,29.71-15.18.75-4.43.13-7.87-1.86-10.22-2.71-3.21-8.27-4.97-15.68-4.97h-26.55l-5.17,30.38h19.55Z"/>
  <path class="cls-2" d="M328.53,249.96c-24.89,0-45.44-8.53-59.43-24.68-17.85-20.59-24.27-52.36-18.59-91.86,9.59-66.61,53.41-111.36,109.04-111.36,24.45,0,44.79,8.55,58.81,24.74,17.79,20.53,25.02,52.96,19.85,88.95-9.84,68.31-53.92,114.2-109.68,114.2ZM351.99,84.8c-19.73,0-30.43,26.04-33.94,50.41-3.09,21.44-1.07,38.13,5.56,45.77,2.98,3.44,6.99,5.11,12.26,5.11,23.62,0,31.89-32.98,34.72-52.64,2.82-19.58.51-35.88-6.17-43.6-2.95-3.41-6.76-5.07-11.65-5.07l-.78.02Z"/>
  <path class="cls-2" d="M150.49,249.96c-1.83,0-3.56-.81-4.73-2.21-1.18-1.39-1.67-3.24-1.35-5.04l13.43-76.28h-54.23l-13.81,78.42c-.52,2.95-3.08,5.1-6.08,5.1H13.08c-1.83,0-3.56-.81-4.73-2.21-1.18-1.39-1.67-3.24-1.35-5.04L40.55,52.12c3.07-17.42,18.13-30.06,35.81-30.06h45.32c1.83,0,3.56.81,4.73,2.2,1.18,1.4,1.67,3.24,1.35,5.04l-11.53,65.51h54.23l11.92-67.65c.52-2.95,3.08-5.1,6.08-5.1h70.65c1.83,0,3.56.81,4.73,2.2,1.18,1.4,1.67,3.24,1.35,5.04l-33.55,190.6c-3.07,17.42-18.12,30.06-35.81,30.06h-45.32Z"/>
  <path class="cls-2" d="M188.44,28.24l-12.81,72.75h-66.76l12.81-72.75h-45.32c-14.65,0-27.19,10.52-29.73,24.95L13.08,243.79h70.65l14.7-83.52h66.76l-14.71,83.52h45.31c14.65,0,27.19-10.52,29.73-24.95l33.55-190.6h-70.65ZM359.56,28.24c-52.08,0-93.68,41.8-102.93,106.07-10.03,69.67,19.35,109.48,71.9,109.48,49.53,0,93.54-39.24,103.57-108.91,7.78-54.03-12.78-106.64-72.54-106.64ZM376.71,134.32c-4.79,33.3-17.5,57.93-40.84,57.93-25.86,0-27.64-32.18-23.93-57.93,3.67-25.47,15.34-55.7,39.83-55.7,23.92-.84,28.89,28.27,24.94,55.7ZM608.52,142.25c26.31-6.87,41.04-27.79,45.41-52.58,7.36-41.83-12.82-61.25-84.52-61.25h-76.24c-14.65,0-27.19,10.52-29.73,24.95l-33.54,190.42h70.52l13.25-75.25h21.51c32.86,0,36.16,9.21,31.21,37.3l-6.67,37.91,67.39-.02s2.88-16.34,7.82-44.42c7.63-43.32-5.17-48.7-26.4-57.06ZM584.63,101.02c-2.54,14.94-14.72,20.31-35.8,20.31h-26.85l7.27-42.72h31.76c15.88,0,26.21,7.17,23.62,22.41ZM706.67,28.23c-14.65,0-27.18,10.53-29.72,24.95l-33.56,190.6h45.17c14.65,0,27.19-10.52,29.73-24.95l33.56-190.62h-45.18Z"/>
  <path class="cls-2" d="M954.36,142.13c.06.12.06.25.12.37-5.12-.19-9.07-.31-11.79-.37.74-2.16,2.65-3.76,4.94-4.13.31-.06.62-.06.86-.06,2.65,0,5,1.67,5.86,4.2Z"/>
  <path class="cls-2" d="M987.07,133.68h-53.14c-.56,0-1.11-.06-1.67-.25.86-3.95,6.91-4.07,48.01-4.81,4.69-.06,9.26-.62,13.64-1.67-.37.86-.68,1.73-.99,2.59-.86,2.47-3.21,4.13-5.86,4.13Z"/>
  <path class="cls-2" d="M1097.48,136.76c-11.97.19-23.76,3.21-34.13,9.13-.74.43-1.42.86-2.1,1.23-11.05,6.91-17.84,15.12-21.42,20.18l-8.7,12.65-7.41-12.65c-3.09-5.06-8.89-13.27-18.39-20.18-.55-.37-1.17-.8-1.73-1.23-8.89-5.92-19.07-8.95-29.31-9.13-23.88-.49-35.98-.99-35.98-.99-.25,0,13.95-.49,42.03-.99,11.97-.19,23.82-3.15,34.19-9.13.68-.43,1.42-.8,2.1-1.23,10.99-6.85,17.77-15.12,21.41-20.18l8.7-12.65,7.41,12.65c3.09,5.06,8.89,13.33,18.33,20.18.62.43,1.18.8,1.79,1.23,8.89,5.99,19.01,8.95,29.25,9.13,23.33.49,35.49.99,36.04.99,0,0-14.19.49-42.09.99Z"/>
  <path class="cls-2" d="M1144.81,138.74c-.93,1.85-2.78,3.15-5,3.21,0,0-14.26.49-42.21.99-4.75.06-9.38.62-13.83,1.67.31-.62.49-1.3.74-1.91.86-2.47,3.21-4.13,5.8-4.13h53.2c.43,0,.86.06,1.3.18Z"/>
  <path class="cls-2" d="M1123.03,130.1c-.13-.31-.25-.68-.37-.99,5.37.12,9.44.25,12.28.31-.55,2.47-2.59,4.44-5.18,4.75-.31.06-.55.06-.86.06-2.59,0-5-1.6-5.86-4.13Z"/>
  <path class="cls-2" d="M1145.68,150.46c-.93.37-2.04.74-3.33,1.11-5.43,1.73-13.64,4.26-17.59,10.49l-5.25,8.39c-27.65,44.31-49.5,79.37-106.46,79.37-21.17,0-37.89-6.23-49.62-18.51-10.37-10.8-15.92-25.43-18.76-40.67-2.96-16.11-2.9-32.96-2.34-46.78.06-.62.19-1.17.37-1.73.74-2.16,2.65-3.76,4.94-4.13.31-.06.62-.06.86-.06,2.65,0,5,1.67,5.86,4.2.06.12.06.25.12.37,9.63,27.59,34.31,45.92,63.2,46.78.68,0,1.42.06,2.1.06,4.51,0,8.95-.43,13.21-1.3,22.96-4.44,42.09-20.49,50.79-43.45.31-.62.49-1.3.74-1.91.86-2.47,3.21-4.13,5.8-4.13h53.2c.43,0,.86.06,1.3.18,2.41.43,4.32,2.35,4.75,4.88.55,2.9-1.11,5.8-3.89,6.85Z"/>
  <path class="cls-2" d="M1135.06,128.37c0,.37-.06.68-.12,1.05-.55,2.47-2.59,4.44-5.18,4.75-.31.06-.55.06-.86.06-2.59,0-5-1.6-5.86-4.13-.13-.31-.25-.68-.37-.99-9.69-27.22-34.31-45.3-62.89-46.16-.74-.06-1.42-.06-2.16-.06-4.32,0-8.58.37-12.65,1.23-23.02,4.2-42.15,20.06-51.04,42.83-.37.86-.68,1.73-.99,2.59-.86,2.47-3.21,4.13-5.86,4.13h-53.14c-.56,0-1.11-.06-1.67-.25-2.28-.62-4.01-2.47-4.44-4.81-.37-2.28.49-4.57,2.22-5.99.49-.37,1.05-.68,1.67-.93.93-.31,2.1-.68,3.39-1.11,5.43-1.67,13.64-4.26,17.53-10.49l5.25-8.33c27.65-44.37,49.5-79.43,106.52-79.43,21.17,0,37.83,6.23,49.62,18.51,21.29,22.28,22.22,60.6,21.04,87.51Z"/>
  <path class="cls-2" d="M1283.02,249.96c-2.37,0-4.54-1.36-5.56-3.5l-47.02-98.04-3.39,27.99-12.05,68.45c-.52,2.95-3.08,5.1-6.08,5.1h-67.52c-1.83,0-3.56-.81-4.73-2.21-1.18-1.39-1.67-3.24-1.35-5.04l33.48-190.15c3.06-17.41,18.12-30.06,35.81-30.06h40.69c2.37,0,4.54,1.37,5.57,3.51l46.97,98.28,3.38-27.94,12.1-68.75c.52-2.95,3.08-5.1,6.08-5.1h67.52c1.83,0,3.56.81,4.73,2.2,1.18,1.4,1.67,3.24,1.35,5.04l-33.48,190.15c-3.06,17.41-18.12,30.06-35.81,30.06h-40.69Z"/>
  <path class="cls-2" d="M736.52,249.96c-1.83,0-3.56-.81-4.73-2.21-1.18-1.4-1.67-3.24-1.35-5.04l4.85-27.45c2.98-16.85,11.54-32.53,24.1-44.15l93.57-86.52h-87.31c-1.83,0-3.56-.81-4.73-2.2-1.18-1.4-1.67-3.24-1.35-5.04l8.84-50.19c.52-2.95,3.08-5.1,6.08-5.1h189.71c1.83,0,3.56.81,4.73,2.2,1.18,1.4,1.67,3.24,1.35,5.04l-4.51,25.59c-2.99,17.01-11.65,32.8-24.39,44.45l-94.73,86.73,88.68-.03c1.83,0,3.56.81,4.73,2.21,1.18,1.4,1.67,3.24,1.35,5.04l-9.09,51.54c-.52,2.95-3.08,5.1-6.08,5.1l-189.72.03Z"/>
  <path class="cls-1" d="M933.9,127.5h53.18c11.4-32.57,40.78-51.71,72.85-50.75,30.77.93,58.28,20.02,68.96,51.34,2.07-47.64-4.61-99.55-64.51-99.55s-76.28,36.77-106.5,84.86c-6.15,9.79-19.06,12.26-23.98,14.1ZM937.22,94.79c11.8-10.81,19.71-25.21,22.48-40.97l4.5-25.59h-189.71l-8.84,50.19h103.07l-105.15,97.22c-11.65,10.77-19.45,25.07-22.21,40.69l-4.85,27.44,189.72-.03,9.1-51.53-104.57.03,106.46-97.46ZM1090.33,144.71c-11.4,32.57-40.78,51.71-72.85,50.75-30.76-.93-58.28-20.02-68.96-51.34-2.07,47.64,4.61,99.55,64.51,99.55s76.28-36.77,106.5-84.86c6.15-9.79,19.06-12.26,23.98-14.1h-53.18ZM1319.4,28.68l-12.04,68.42-5.94,49-56.11-117.41h-40.69c-14.65,0-27.19,10.52-29.73,24.95l-33.48,190.15h67.52l11.99-68.12,5.94-49,56.16,117.11h40.69c14.65,0,27.19-10.52,29.73-24.95l33.48-190.15h-67.52ZM1003.58,145.92c.6.41,1.18.81,1.78,1.24,9.45,6.86,15.26,15.09,18.34,20.18l7.44,12.63,8.7-12.63c3.6-5.09,10.38-13.33,21.4-20.18.7-.43,1.39-.83,2.09-1.24,10.36-5.97,22.2-8.95,34.17-9.16,27.87-.48,42.07-.97,42.07-.97-.56-.02-12.71-.52-36.03-.99-10.25-.21-20.4-3.18-29.27-9.16-.6-.39-1.18-.81-1.78-1.24-9.45-6.86-15.26-15.09-18.34-20.18l-7.44-12.63-8.7,12.63c-3.6,5.09-10.38,13.33-21.4,20.18-.7.43-1.39.85-2.09,1.24-10.36,5.99-22.2,8.95-34.17,9.16-28.08.48-42.28.99-42.07.99,0,0,12.14.48,36.03.97,10.25.21,20.4,3.2,29.27,9.16Z"/>
  <path class="cls-2" d="M1139.57,135.77s-14.19.49-42.09.99c-11.97.19-23.76,3.21-34.13,9.13-.74.43-1.42.86-2.1,1.23-11.05,6.91-17.84,15.12-21.42,20.18l-8.7,12.65-7.41-12.65c-3.09-5.06-8.89-13.27-18.39-20.18-.55-.37-1.17-.8-1.73-1.23-8.89-5.92-19.07-8.95-29.31-9.13-23.88-.49-35.98-.99-35.98-.99-.25,0,13.95-.49,42.03-.99,11.97-.19,23.82-3.15,34.19-9.13.68-.43,1.42-.8,2.1-1.23,10.99-6.85,17.77-15.12,21.41-20.18l8.7-12.65,7.41,12.65c3.09,5.06,8.89,13.33,18.33,20.18.62.43,1.18.8,1.79,1.23,8.89,5.99,19.01,8.95,29.25,9.13,23.33.49,35.49.99,36.04.99Z"/>
</svg>