<?xml version="1.0" encoding="UTF-8"?>
<svg id="Layer_1" xmlns="http://www.w3.org/2000/svg" version="1.1" viewBox="0 0 1182.8 405.5">
  <!-- Generator: Adobe Illustrator 29.6.1, SVG Export Plug-In . SVG Version: 2.1.1 Build 9)  -->
  <defs>
    <style>
      .st0 {
        fill: #fff;
      }
    </style>
  </defs>
  <path class="st0" d="M1092,143.7v124.3h-23.9v-124.3h23.9ZM576.8,173.3v95.4c0,8.8-1.8,16.6-5.3,23.4-3.5,7-8.8,12.4-15.9,16.4-7.1,4.1-15.6,6.2-25.6,6.2s-24.5-3.1-33.2-9.4c-8.5-6.3-13.4-14.8-14.5-25.6h23.8c1.3,4.3,3.9,7.8,8,10.3,4.2,2.6,9.3,3.9,15.2,3.9s12.6-2.1,16.9-6.3c4.3-4.1,6.5-10.4,6.5-18.8v-14.7c-3.1,4.4-7.4,8.1-12.8,11.1-5.4,3-11.5,4.4-18.5,4.4s-15.3-2.1-21.9-6.2-11.9-9.9-15.7-17.3c-3.8-7.5-5.6-16.1-5.6-25.8s1.9-18.1,5.6-25.5c3.9-7.4,9.1-13.1,15.6-17.1,6.6-4,14-6,22.1-6s13.3,1.4,18.6,4.3c5.4,2.7,9.6,6.3,12.7,10.8v-13.5h24.1ZM552.7,220.6c0-5.8-1.1-10.8-3.4-14.9-2.3-4.2-5.4-7.4-9.2-9.6-3.9-2.3-8-3.4-12.5-3.4s-8.5,1.1-12.3,3.2c-3.8,2.2-6.8,5.4-9.2,9.6-2.3,4.1-3.4,9-3.4,14.7s1.1,10.7,3.4,15c2.4,4.2,5.5,7.5,9.2,9.7,3.9,2.3,8,3.4,12.3,3.4s8.6-1.1,12.5-3.2c3.9-2.3,7-5.5,9.2-9.6,2.3-4.2,3.4-9.2,3.4-15ZM441.1,173.3v94.7h23.9v-94.7h-23.9ZM664.6,176.7c-5.6-3.2-12-4.8-19.1-4.8s-12,1.2-17.1,3.6c-5.1,2.3-9.2,5.5-12.3,9.6v-41.4h-23.9v124.3h23.9v-52.3c0-7.5,1.9-13.3,5.6-17.3,3.9-4.1,9.1-6.2,15.7-6.2s11.6,2.1,15.4,6.2c3.8,4,5.6,9.7,5.6,17.3v52.3h23.9v-55.6c0-8.5-1.6-15.8-4.8-21.9-3.1-6.2-7.4-10.8-13-13.8ZM775.5,245.7h-52v-102h-25.4v124.3h77.4v-22.2ZM871.1,227.8h-69.2c.6,6.8,3,12.2,7.2,16.1,4.2,3.9,9.4,5.8,15.6,5.8,8.9,0,15.2-3.8,19-11.5h25.8c-2.7,9.1-8,16.6-15.7,22.6-7.8,5.8-17.3,8.7-28.6,8.7s-17.3-2-24.6-6c-7.2-4.1-12.8-9.9-16.9-17.3-4-7.4-6-16-6-25.6s2-18.4,6-25.8c4-7.4,9.6-13.1,16.8-17.1,7.2-4,15.4-6,24.8-6s17,1.9,24.1,5.8c7.2,3.9,12.7,9.4,16.6,16.6,4,7.1,6,15.2,6,24.4s-.2,6.5-.7,9.2ZM847,211.7c-.1-6.2-2.3-11.1-6.7-14.7-4.3-3.8-9.6-5.6-15.9-5.6s-10.9,1.8-15,5.5c-4,3.5-6.4,8.5-7.4,14.9h45ZM942,173.3l-23.9,72.7-23.9-72.7h-25.6l34.9,94.7h29.1l35-94.7h-25.5ZM1057.5,227.8h-69.2c.6,6.8,3,12.2,7.2,16.1,4.2,3.9,9.4,5.8,15.6,5.8,8.9,0,15.2-3.8,19-11.5h25.8c-2.7,9.1-8,16.6-15.7,22.6-7.8,5.8-17.3,8.7-28.6,8.7s-17.3-2-24.6-6c-7.2-4.1-12.8-9.9-16.9-17.3-4-7.4-6-16-6-25.6s2-18.4,6-25.8c4-7.4,9.6-13.1,16.8-17.1,7.2-4,15.4-6,24.8-6s17,1.9,24.1,5.8c7.2,3.9,12.7,9.4,16.6,16.6,4,7.1,6,15.2,6,24.4s-.2,6.5-.7,9.2ZM1033.4,211.7c-.1-6.2-2.3-11.1-6.7-14.7-4.3-3.8-9.6-5.6-15.9-5.6s-10.9,1.8-15,5.5c-4,3.5-6.4,8.5-7.4,14.9h45ZM400,143.7v51.5h-49.8v-51.5s-25.4,0-25.4,0v124.3h25.4v-49.4s49.8,0,49.8,0v49.4h25.4v-124.3h-25.4ZM443,158.6c2.8,2.5,6.2,3.8,10.3,3.8s7.5-1.3,10.1-3.8c2.8-2.7,4.2-5.9,4.2-9.8s-1.4-7.1-4.2-9.6c-2.7-2.7-6-4-10.1-4s-7.5,1.3-10.3,4c-2.7,2.5-4,5.8-4,9.6s1.3,7.1,4,9.8ZM264.4,90.8l-45.4,45.4h30.4v131.8h30.1v-106.3l-28.7-25.4h28.7c0,0,30.4,0,30.4,0l-45.4-45.4ZM182.8,136.2l-45.4-45.4-45.4,45.4h30.4v131.6h30.1v-106.3l-28.7-25.4h28.7c0,0,30.4,0,30.4,0ZM246.3,199.7l-45.4-45.4-45.4,45.4h30.4v68.3h30.1v-42.9l-28.7-25.4h59.1Z"/>
</svg>